<svg version="1.2" baseProfile="tiny" id="EdgeSVG_bjTfe" x="0px" y="0px" width="101.44px" height="58.583px" viewBox="0 0 101.44 58.583" xmlns:xlink="http://www.w3.org/1999/xlink" xmlns="http://www.w3.org/2000/svg">
  <linearGradient id="SVGID_1_" gradientUnits="userSpaceOnUse" x1="0" y1="29.2915" x2="101.4399" y2="29.2915">
    <stop offset="0" style="stop-color:#000000;stop-opacity:0.5"/>
    <stop offset="1" style="stop-color:#000000;stop-opacity:0.5"/>
  </linearGradient>
  <path fill="url(#SVGID_1_)" d="M2.72,58.583c-1.5,0-2.72-1.22-2.72-2.72V2.72C0,1.22,1.22,0,2.72,0h96c1.5,0,2.72,1.22,2.72,2.72&#xD;&#xA;&#x9;v53.143c0,1.5-1.22,2.72-2.72,2.72H2.72z"/>
  <path fill="#003876" d="M98.72,0.72h-96c-1.1,0-2,0.9-2,2v53.143c0,1.1,0.9,2,2,2h96c1.1,0,2-0.9,2-2V2.72&#xD;&#xA;&#x9;C100.72,1.62,99.82,0.72,98.72,0.72z"/>
  <path fill="#D53647" d="M99.728,1.004L0.72,29.292l99.008,28.287c0.59-0.349,0.992-0.985,0.992-1.716V2.72&#xD;&#xA;&#x9;C100.72,1.989,100.318,1.353,99.728,1.004z"/>
  <polygon fill="#FFFFFF" points="100.72,3.675 11.038,29.292 100.72,54.915 "/>
  <g>
    <g>
      <path fill="#FFF100" stroke="#000000" stroke-width="0.0464" d="M86.269,35.422c-0.254,0.264-0.749,1.263-0.841,2.105&#xD;&#xA;&#x9;&#x9;&#x9;c0.08,0.539-0.749,1.829-0.876,2.316c-0.091,0.184-0.206,0.434-0.299,0.565l-4.18-0.329c-0.184-0.105-0.311-0.342-0.311-0.552&#xD;&#xA;&#x9;&#x9;&#x9;c0.437,0.078,1.137-0.474,1.366-0.711c-0.026-0.237-0.009-0.567,0.062-0.79c0.115-0.381,0.461-0.697,0.668-0.855&#xD;&#xA;&#x9;&#x9;&#x9;c0.277-0.19,0.853-0.337,1.176-0.456c0.185-0.263,0.344-0.531,0.666-1.216c0.081,0.08,0.206,0.192,0.303,0.235&#xD;&#xA;&#x9;&#x9;&#x9;c0.351-0.569,0.624-1.23,0.733-1.577c0.322,0.414,0.863,0.369,1.24,0.237C86.009,34.671,86.125,35.191,86.269,35.422z"/>
      <g>
        <path fill="#FFF100" stroke="#000000" stroke-width="0.0464" d="M78.742,36.363c0,0-4.692-1.28-5.411-1.473&#xD;&#xA;&#x9;&#x9;&#x9;&#x9;c-0.72-0.193-1.421-1.508-1.715-2.234c-1.24,0.851-3.464,1.14-4.493,1.082c0.942,0.473,2.82,1.869,3.597,3.264&#xD;&#xA;&#x9;&#x9;&#x9;&#x9;c0.548-0.5,1.688-1.319,2.407-1.123c0.726,0.197,5.416,1.445,5.416,1.445"/>
        <path fill="#FFF100" stroke="#000000" stroke-width="0.0464" d="M72.789,37.509c-0.06,0.285,0.069,0.329,0.302,0.384&#xD;&#xA;&#x9;&#x9;&#x9;&#x9;c0.11,0.026,0.296,0.073,0.479,0.125c0.229,0.066,0.369,0.114,0.426-0.172l0.884-4.311c0.062-0.286-0.083-0.313-0.315-0.371&#xD;&#xA;&#x9;&#x9;&#x9;&#x9;c-0.184-0.046-0.367-0.099-0.477-0.132c-0.23-0.069-0.362-0.095-0.42,0.191L72.789,37.509z"/>
        <path fill="#FFF100" stroke="#000000" stroke-width="0.0464" d="M74.987,37.337c-0.04,0.199-0.136,0.166-0.296,0.12&#xD;&#xA;&#x9;&#x9;&#x9;&#x9;c-0.128-0.036-0.258-0.069-0.335-0.087c-0.162-0.038-0.251-0.068-0.21-0.268l0.58-2.823c0.039-0.198,0.132-0.18,0.292-0.132&#xD;&#xA;&#x9;&#x9;&#x9;&#x9;c0.075,0.022,0.204,0.059,0.333,0.091c0.161,0.041,0.261,0.06,0.219,0.258L74.987,37.337z"/>
        <path fill="#FFF100" stroke="#000000" stroke-width="0.0464" d="M92.862,40.076l-11.471-3.03&#xD;&#xA;&#x9;&#x9;&#x9;&#x9;c-0.568-0.172-1.894-1.149-2.124-1.806c-0.231-0.657-0.635,0.465-0.84,1.538c-0.203,1.073-0.298,2.276,0.161,1.803&#xD;&#xA;&#x9;&#x9;&#x9;&#x9;c0.461-0.474,2.026-0.684,2.603-0.553l11.468,3.053C92.934,41.146,93.125,40.149,92.862,40.076z"/>
      </g>
      <g>
        <path fill="#FFF100" stroke="#000000" stroke-width="0.0464" d="M76.356,40.743l15.563,1.283&#xD;&#xA;&#x9;&#x9;&#x9;&#x9;c0.281,0.016,0.333-1.001,0.064-1.028l-15.564-1.259L76.356,40.743z"/>
        <path fill="#FFF100" stroke="#000000" stroke-width="0.0464" d="M85.728,43.606c0.367,0.369,1.842,1.158,2.439,1.316&#xD;&#xA;&#x9;&#x9;&#x9;&#x9;c-0.645,0.369-2.349,0-2.947-0.316c0.186,0.526,0.921,1.315,1.521,1.631c-0.968,0.737-2.118-0.368-2.81-1.421&#xD;&#xA;&#x9;&#x9;&#x9;&#x9;c0.23,0.316,0.369,1.263,0.23,1.579c-0.553-1.158-2.165-2-3.04-2.158c0.737,0.262,0.83,1,0.783,1.368&#xD;&#xA;&#x9;&#x9;&#x9;&#x9;c-0.736-0.842-1.474-0.684-1.657,0.105c-0.646-1.579-2.442-2.052-3.409-2.052s-0.69-0.895-2.395-1.001&#xD;&#xA;&#x9;&#x9;&#x9;&#x9;c-1.112-0.068-1.243-1.421-2.026-1.895s-0.46-0.894-0.138-1.368c0.322-0.474,0.967-0.632,1.243-0.21&#xD;&#xA;&#x9;&#x9;&#x9;&#x9;c0.276,0.42,0.921-0.632,1.565-0.053c0.309,0.276,0.461,0.684,0.783,0c0.322-0.684,1.144,0.408,1.474,0.948&#xD;&#xA;&#x9;&#x9;&#x9;&#x9;c0.161,0.263,0.23,0.553,0.046,0.658c-0.184,0.105-0.346,0.396-0.184,0.579c0.161,0.185-0.185,0.396-0.46,0.396&#xD;&#xA;&#x9;&#x9;&#x9;&#x9;c1.888,0.474,4.535,0.447,5.388,0.289c-0.093,0.185-0.3,0.553-0.483,0.658c0.852,0.08,2.855,0.184,3.729-0.552&#xD;&#xA;&#x9;&#x9;&#x9;&#x9;c-0.046,0.29-0.161,0.815-0.298,0.974c0.367,0.079,1.934,0.026,2.349-0.105C87.247,43.37,86.81,43.764,85.728,43.606z"/>
      </g>
      <g>
        <path fill="#FFF100" stroke="#000000" stroke-width="0.0464" d="M84.983,38.164c-0.102,0.518-0.059,0.902-0.693,0.834&#xD;&#xA;&#x9;&#x9;&#x9;&#x9;c-0.072,0.356,0.13,0.917,0.506,0.922c0.518,0.007,0.892-0.663,1.003-1.216c0.073-0.368,0.101-1.088-0.242-1.167&#xD;&#xA;&#x9;&#x9;&#x9;&#x9;C85.238,37.467,85.087,37.635,84.983,38.164z"/>
        <path fill="#FFF100" stroke="#000000" stroke-width="0.0464" d="M84.135,38.051c-0.114,0.577-0.067,1.006-0.772,0.929&#xD;&#xA;&#x9;&#x9;&#x9;&#x9;c-0.081,0.397,0.143,1.022,0.563,1.028c0.576,0.009,0.993-0.738,1.117-1.355c0.083-0.409,0.111-1.212-0.271-1.299&#xD;&#xA;&#x9;&#x9;&#x9;&#x9;C84.419,37.274,84.25,37.462,84.135,38.051z"/>
        <path fill="#FFF100" stroke="#000000" stroke-width="0.0464" d="M83.309,37.698c-0.181,0.554-0.184,0.987-0.874,0.803&#xD;&#xA;&#x9;&#x9;&#x9;&#x9;c-0.128,0.382,0.021,1.035,0.438,1.105c0.57,0.098,1.07-0.579,1.266-1.171c0.131-0.393,0.253-1.184-0.114-1.329&#xD;&#xA;&#x9;&#x9;&#x9;&#x9;C83.682,36.972,83.495,37.132,83.309,37.698z"/>
        <path fill="#FFF100" stroke="#000000" stroke-width="0.0464" d="M82.503,37.343c-0.181,0.555-0.185,0.988-0.874,0.803&#xD;&#xA;&#x9;&#x9;&#x9;&#x9;c-0.128,0.381,0.021,1.035,0.438,1.105c0.541,0.092,1-0.526,1.254-1.118c0.175-0.407,0.315-1.214-0.058-1.342&#xD;&#xA;&#x9;&#x9;&#x9;&#x9;C82.918,36.671,82.687,36.777,82.503,37.343z"/>
        <path fill="#FFF100" stroke="#000000" stroke-width="0.0464" d="M83.621,39.961c-0.519,0.303-0.962,1.865-0.289,2.027&#xD;&#xA;&#x9;&#x9;&#x9;&#x9;C84.046,42.159,84.02,40.392,83.621,39.961z"/>
        <path fill="#FFF100" stroke="#000000" stroke-width="0.0464" d="M82.883,39.843c-0.519,0.303-1.043,1.799-0.368,1.96&#xD;&#xA;&#x9;&#x9;&#x9;&#x9;C83.228,41.974,83.283,40.274,82.883,39.843z"/>
        <path fill="#FFF100" stroke="#000000" stroke-width="0.0464" d="M82.135,39.724c-0.519,0.303-1.111,1.813-0.438,1.974&#xD;&#xA;&#x9;&#x9;&#x9;&#x9;C82.411,41.869,82.534,40.156,82.135,39.724z"/>
        <path fill="#FFF100" stroke="#000000" stroke-width="0.0464" d="M81.415,39.635c-0.547,0.226-1.231,1.636-0.581,1.893&#xD;&#xA;&#x9;&#x9;&#x9;&#x9;C81.523,41.8,81.763,40.12,81.415,39.635z"/>
      </g>
    </g>
    <path fill="#81683B" stroke="#000000" stroke-width="0.0464" d="M79.003,28.034c0.312-0.077,0.905-0.146,1.45-0.18&#xD;&#xA;&#x9;&#x9;c0.783,0.052,1.358,1.278,2.326,1.278c0.011,0.302,0.207,1.079,0.783,1.157c-0.068,0.421-0.115,0.949,0.276,1.211&#xD;&#xA;&#x9;&#x9;c-0.23,0.395-0.368,1.237-0.069,1.474c-0.092,0.264-0.185,0.843,0.069,1.106c-0.23,0.368-0.508,1.105-0.139,1.42&#xD;&#xA;&#x9;&#x9;c0.092,0.106,0.196,0.186,0.3,0.238c0.353-0.57,0.626-1.231,0.736-1.58c0.276,0.369,0.779,0.395,1.24,0.237&#xD;&#xA;&#x9;&#x9;c0.105,0.871,0.515,1.683,1.27,2.158c-0.139-0.447-0.253-1,0.139-1.5c0.322,0.184,0.875,0.368,1.128,0.342&#xD;&#xA;&#x9;&#x9;c-0.391-0.342-0.414-1.158-0.229-1.631c0.415,0.341,1.196,0.525,1.611,0.446c-0.552-0.368-0.829-1.552-1.06-2&#xD;&#xA;&#x9;&#x9;c0.462,0.105,1.383,0.395,1.59,0.921c0.068-0.526-0.047-1.158-0.415-1.526c0.874,0,1.289-0.605,1.635-1.421&#xD;&#xA;&#x9;&#x9;c-0.438,0.237-0.897,0.104-1.496,0.263c0.413-0.131,0.782-0.737,0.989-1.105c-0.391,0.21-1.15,0.289-1.519,0.026&#xD;&#xA;&#x9;&#x9;c0.459-0.078,1.542-0.395,1.957-1.053c-1.015-0.104-0.714-1.391-1.728-1.312c0.68-0.089,1.394-0.038,1.842,0.128&#xD;&#xA;&#x9;&#x9;c0.457,0.168,0.813,0.155,0.948-0.014c0.507,0.053,3.565,0.645,4.372,0.882c0.806,0.237,1.111-0.411,0.835-0.964&#xD;&#xA;&#x9;&#x9;c0.735-0.262,0.73-1.115,0.478-1.378c0.736-0.079,0.554-1.171,0.179-1.343c0.166-0.136,0.248-0.292,0.235-0.473&#xD;&#xA;&#x9;&#x9;c-0.017-0.228-0.121-0.37-0.303-0.447c0.053-0.452,0.097-0.999-0.435-1.105c-0.022-0.526-0.208-0.789-0.691-0.974&#xD;&#xA;&#x9;&#x9;c-0.49-0.187-1.196,0.08-1.956,0.342c-0.782,0.271-1.875,0.358-2.958,0.438c-0.811-0.418-2.761-0.719-3.335-0.865&#xD;&#xA;&#x9;&#x9;c0.307,0.084,0.815-0.239,1.71-0.848c0.43-0.292,0.841-0.577,1.035-0.832c0.391-0.21,1.269-0.761,1.591-0.972&#xD;&#xA;&#x9;&#x9;s0.863-0.638,0.535-1.006c0.286-0.191,0.552-0.526,0.385-0.77c0.353-0.172,0.467-0.658,0.3-0.855&#xD;&#xA;&#x9;&#x9;c0.483-0.211,0.665-0.552,0.595-0.947c0.454-0.211,0.757-0.583,0.658-1.08c0.306-0.304,0.362-0.726,0.267-1.072&#xD;&#xA;&#x9;&#x9;c0.343-0.313,0.486-0.732,0.403-1.166c0.328-0.353,0.386-1.003,0.093-1.289c0.298-0.46,0.448-1.434-0.634-0.842&#xD;&#xA;&#x9;&#x9;c-0.966,0.528-2.799,1.322-3.489,1.479c-0.037-0.394-0.433-0.37-0.978-0.058c-0.737,0.42-2.167,0.895-2.903,1&#xD;&#xA;&#x9;&#x9;c-0.011-0.183-0.042-0.361-0.09-0.527c-0.876,0.737-3.498,1.79-4.328,2c0.004-0.296-0.029-0.568-0.095-0.79&#xD;&#xA;&#x9;&#x9;c-0.368,1.315-2.9,1.631-4.56,2.106c-1.568,0.448-4.377,1.576-3.073,4.171c-0.807,1.368-2.502,1.868-2.89,2.618&#xD;&#xA;&#x9;&#x9;c-0.53,1.026-0.102,1.991,0.852,2.132c1.428,0.211,2.228-1.622,3.541-1.042c0.27,0.674-1.181,1.358-0.409,3.516&#xD;&#xA;&#x9;&#x9;C78.307,28.205,78.613,28.066,79.003,28.034z"/>
    <path fill="#FFFFFF" stroke="#000000" stroke-width="0.0464" d="M79.195,26.761c0.53-0.383,0.945-0.945,1.328-0.945&#xD;&#xA;&#x9;&#x9;c-0.291-0.167-1.04-0.233-1.778-0.044c0.322-0.263,0.811-0.825,1.019-1.14c-0.3-0.027-0.715-0.034-1.127,0.052&#xD;&#xA;&#x9;&#x9;c0.162-0.263,0.482-0.737,0.735-0.947c-0.622-0.026-1.428,0.145-1.842,0.527c0.368-0.342,0.714-1.02,0.46-1.625&#xD;&#xA;&#x9;&#x9;c-0.921,1.947-3.178,2.756-4.328,3.335c-1.151,0.58-2.072,1.001-2.118,1.632c-0.047,0.632-0.254,1.237-0.715,1.711&#xD;&#xA;&#x9;&#x9;c-0.46,0.474,1.958,2.263,3.316,0.947s3.293-2.024,4.443-2.079c0.554-0.027,1.152-0.921,1.728-0.868&#xD;&#xA;&#x9;&#x9;C80.131,27.159,79.585,26.709,79.195,26.761z"/>
    <path fill="#FFF100" stroke="#000000" stroke-width="0.0464" d="M71.151,31.158c0.207,0.395,1.13,0.602,1.739,0.263&#xD;&#xA;&#x9;&#x9;c0.806-0.447,0.726-0.763,1.416-1.289c-0.23,0.157-0.483,0.026-0.645-0.131s-0.761-0.316-1.151-0.08&#xD;&#xA;&#x9;&#x9;C72.417,30.132,71.519,31.026,71.151,31.158z"/>
    <path fill="#FFF100" stroke="#000000" stroke-width="0.0464" d="M71.128,28.922c-0.345,0.553-1.004,0.773-1.128,1.605&#xD;&#xA;&#x9;&#x9;c-0.104,0.697,0.196,1.658,1.047,1.71c-0.085-0.599,0.069-0.776,0.414-1.039c0.4-0.305,0.839-0.97,1.128-1.138&#xD;&#xA;&#x9;&#x9;c0.444-0.257,0.242-0.324-0.413-0.335C71.416,29.711,70.898,29.369,71.128,28.922z"/>
    <path fill="#FFFFFF" stroke="#000000" stroke-width="0.0464" d="M92.639,27.119c0.507,0.053,3.565,0.645,4.372,0.882&#xD;&#xA;&#x9;&#x9;c0.806,0.237,1.111-0.411,0.835-0.964c0.735-0.262,0.73-1.115,0.478-1.378c0.736-0.079,0.554-1.171,0.179-1.343&#xD;&#xA;&#x9;&#x9;c0.166-0.136,0.248-0.292,0.235-0.473c-0.017-0.228-0.121-0.37-0.303-0.447c0.053-0.452,0.097-0.999-0.435-1.105&#xD;&#xA;&#x9;&#x9;c-0.022-0.526-0.208-0.789-0.691-0.974c-0.49-0.187-1.196,0.08-1.956,0.342c-0.782,0.271-1.875,0.358-2.958,0.438&#xD;&#xA;&#x9;&#x9;c0.214,0.11,0.346,0.227,0.356,0.353c0.036,0.474-0.186,0.815-0.691,0.737c0.621,0.104,0.853,0.604,0.483,0.999l-0.042,0.01&#xD;&#xA;&#x9;&#x9;c0.039,0.054,0.063,0.111,0.064,0.174c0.012,0.29-0.257,0.412-0.669,0.438c0.897,0.079,0.623,1.221,0.07,1.142&#xD;&#xA;&#x9;&#x9;C92.403,26.242,92.833,26.756,92.639,27.119z"/>
    <g>
      <path fill="none" stroke="#000000" stroke-width="0.0464" d="M81.398,43.87c-0.345-0.29-1.474-1.053-1.911-1.131&#xD;&#xA;&#x9;&#x9;&#x9;c0.276,0,1.497-0.027,1.819-0.212"/>
      <path fill="none" stroke="#000000" stroke-width="0.0464" d="M84.852,44.817c-0.391-0.29-2.233-1.131-2.556-1.237&#xD;&#xA;&#x9;&#x9;&#x9;c0.368-0.026,1.589-0.13,2.004-0.104"/>
      <path fill="none" stroke="#000000" stroke-width="0.0464" d="M78.359,43.449c-0.461-0.08-1.565-0.606-2.004-1.185&#xD;&#xA;&#x9;&#x9;&#x9;c0.507,0.185,1.566,0.369,1.935,0.237"/>
      <path fill="none" stroke="#000000" stroke-width="0.0464" d="M75.18,42.343c-0.62-0.132-1.335-0.737-1.91-1.316&#xD;&#xA;&#x9;&#x9;&#x9;c0.253,0.158,1.427,0.658,1.796,0.658"/>
      <path fill="none" stroke="#000000" stroke-width="0.0464" d="M75.503,40.869c-0.691-0.026-1.704-0.526-2.119-1.184&#xD;&#xA;&#x9;&#x9;&#x9;c0.461,0.21,1.198,0.395,1.796,0.289"/>
      <path fill="none" stroke="#000000" stroke-width="0.0464" d="M84.003,35.735c-0.235,0.379-0.506,0.719-0.786,0.897&#xD;&#xA;&#x9;&#x9;&#x9;c-0.04,0.026-0.103,0.055-0.183,0.083"/>
      <path fill="none" stroke="#000000" stroke-width="0.0464" d="M81.129,38.817c0.009,0.072,0.023,0.135,0.039,0.185&#xD;&#xA;&#x9;&#x9;&#x9;c0.207-0.106,0.345-0.185,0.483-0.237"/>
      <path fill="none" stroke="#000000" stroke-width="0.0464" d="M79.694,19.396c0.691-0.658,2.472-1.484,2.948-1.737&#xD;&#xA;&#x9;&#x9;&#x9;c0.989-0.526,0.921-1.526,0.184-1.632"/>
      <path fill="none" stroke="#000000" stroke-width="0.0464" d="M80.869,19.974c0.645-0.579,1.864-1.263,2.579-1.553&#xD;&#xA;&#x9;&#x9;&#x9;c0.714-0.289,0.806-1.368-0.116-1.421"/>
      <path fill="none" stroke="#000000" stroke-width="0.0464" d="M81.791,20.448c0.735-0.263,1.772-1.052,2.601-1.368&#xD;&#xA;&#x9;&#x9;&#x9;c0.526-0.201,0.783-1.632-0.391-1.263"/>
      <path fill="none" stroke="#000000" stroke-width="0.0464" d="M82.526,21.131c0.715-0.289,1.865-1.052,2.58-1.473&#xD;&#xA;&#x9;&#x9;&#x9;c0.514-0.303,0.368-1.158-0.322-1.026"/>
      <path fill="none" stroke="#000000" stroke-width="0.0464" d="M83.77,21.474c0.46-0.315,1.289-0.895,1.819-1.184&#xD;&#xA;&#x9;&#x9;&#x9;c0.529-0.289,0.552-1.105-0.161-1.052"/>
      <path fill="none" stroke="#000000" stroke-width="0.0464" d="M84.713,21.895c0.438-0.315,1.291-0.895,1.682-1.079&#xD;&#xA;&#x9;&#x9;&#x9;s0.346-1.263-0.438-0.921"/>
      <path fill="none" stroke="#000000" stroke-width="0.0464" d="M83.378,16.737c0.968-0.421,2.694-1,3.729-1.369&#xD;&#xA;&#x9;&#x9;&#x9;c1.037-0.368,1.556-0.961,0.795-1.565"/>
      <path fill="none" stroke="#000000" stroke-width="0.0464" d="M88.226,14.619c0.621-0.211,2.406-0.803,3.166-1.04&#xD;&#xA;&#x9;&#x9;&#x9;c0.761-0.236,0.897-0.815,0.368-1.289"/>
      <path fill="none" stroke="#000000" stroke-width="0.0464" d="M84,17.71c0.99-0.474,3.224-1.184,3.961-1.395s0.713-1.434,0-1.382"/>
      <path fill="none" stroke="#000000" stroke-width="0.0464" d="M88.445,15.881c0.782-0.315,2.671-1.118,3.385-1.355&#xD;&#xA;&#x9;&#x9;&#x9;s0.817-1.118,0.059-1.21"/>
      <path fill="none" stroke="#000000" stroke-width="0.0464" d="M84.944,18.632c0.553-0.184,2.119-0.815,3.109-1.132&#xD;&#xA;&#x9;&#x9;&#x9;c0.99-0.316,0.897-1.184,0.299-1.421"/>
      <path fill="none" stroke="#000000" stroke-width="0.0464" d="M88.79,16.842c0.668-0.289,2.465-1.053,3.086-1.29&#xD;&#xA;&#x9;&#x9;&#x9;c0.622-0.236,0.898-0.921,0.346-1.263"/>
      <path fill="none" stroke="#000000" stroke-width="0.0464" d="M85.912,19.421c0.921-0.395,2.349-1.053,3.154-1.343&#xD;&#xA;&#x9;&#x9;&#x9;c0.598-0.214,0.322-1.157-0.322-1.131"/>
      <path fill="none" stroke="#000000" stroke-width="0.0464" d="M89.388,17.684c0.414-0.158,1.911-0.869,2.765-1.263&#xD;&#xA;&#x9;&#x9;&#x9;c0.819-0.38,0.822-1.098,0.178-1.178"/>
      <path fill="none" stroke="#000000" stroke-width="0.0464" d="M86.649,20.264c0.736-0.421,2.072-1.079,2.809-1.395&#xD;&#xA;&#x9;&#x9;&#x9;c0.737-0.316,0.524-1.106-0.098-1.053"/>
      <path fill="none" stroke="#000000" stroke-width="0.0464" d="M89.913,18.409c0.69-0.369,2.033-1.014,2.677-1.329&#xD;&#xA;&#x9;&#x9;&#x9;c0.646-0.316,0.455-1.013-0.081-0.875"/>
      <path fill="none" stroke="#000000" stroke-width="0.0464" d="M85.398,22.327c0.253-0.146,0.853-0.42,1.136-0.616&#xD;&#xA;&#x9;&#x9;&#x9;c0.645-0.448,0.621-1.026,0.068-1.106"/>
      <path fill="none" stroke="#000000" stroke-width="0.0464" d="M87.04,21.158c0.853-0.579,2.145-1.255,2.671-1.5&#xD;&#xA;&#x9;&#x9;&#x9;c0.622-0.29,0.524-0.928,0.064-1.006"/>
      <path fill="none" stroke="#000000" stroke-width="0.0464" d="M90.12,19.257c0.483-0.263,1.756-0.994,2.263-1.283&#xD;&#xA;&#x9;&#x9;&#x9;c0.506-0.29,0.68-0.685,0.363-0.98"/>
      <path fill="none" stroke="#000000" stroke-width="0.0464" d="M87.293,21.053c0.185,0.42,1.018,0.245,1.864-0.264&#xD;&#xA;&#x9;&#x9;&#x9;c0.921-0.552,1.136-1.065,0.628-1.171"/>
      <path fill="none" stroke="#000000" stroke-width="0.0464" d="M89.975,20.092c0.461-0.263,1.693-1.066,2.178-1.303&#xD;&#xA;&#x9;&#x9;&#x9;c0.483-0.237,0.552-0.631,0.229-0.815"/>
      <path fill="none" stroke="#000000" stroke-width="0.0464" d="M89.62,23.764c1.196-0.106,2.924,0.026,2.946,0.604&#xD;&#xA;&#x9;&#x9;&#x9;c0.023,0.58-1.174,0.448-2.095,0.342"/>
      <path fill="none" stroke="#000000" stroke-width="0.0464" d="M88.49,22.921c1.037-0.052,2.948,0.158,3.57,0.264&#xD;&#xA;&#x9;&#x9;&#x9;c0.621,0.104,0.853,0.604,0.483,0.999"/>
      <path fill="none" stroke="#000000" stroke-width="0.0464" d="M92.639,27.119c0.098-0.121,0.083-0.321-0.096-0.592&#xD;&#xA;&#x9;&#x9;&#x9;c-0.913-1.382-2.196-0.619-2.878-1.237"/>
      <path fill="none" stroke="#000000" stroke-width="0.0464" d="M91.967,25.948c0.553,0.079,0.853-1.053-0.046-1.131"/>
      <path fill="none" stroke="#000000" stroke-width="0.0464" d="M92.681,23.948c0.99,0,3.686-0.342,4.56-0.526&#xD;&#xA;&#x9;&#x9;&#x9;c0.516-0.108,0.933-0.136,1.194-0.026"/>
      <path fill="none" stroke="#000000" stroke-width="0.0464" d="M92.52,25.369c2.793-0.237,5.232-0.438,5.982-1.054"/>
      <path fill="none" stroke="#000000" stroke-width="0.0464" d="M98.324,25.658c-0.737,0.079-3.155,0.053-5.826-0.157"/>
      <path fill="none" stroke="#000000" stroke-width="0.0464" d="M98,22.29c-0.149-0.03-0.345-0.025-0.599,0.027&#xD;&#xA;&#x9;&#x9;&#x9;c-1.15,0.236-3.454,0.815-5.043,0.869"/>
      <path fill="none" stroke="#000000" stroke-width="0.0464" d="M97.846,27.036c-0.277-0.552-0.996-0.694-1.987-0.746&#xD;&#xA;&#x9;&#x9;&#x9;c-0.989-0.052-2.694-0.316-3.5-0.5"/>
      <path fill="none" stroke="#000000" stroke-width="0.0464" d="M87.385,35.054c-0.461-0.224-0.817-1.685-0.496-2.434"/>
      <path fill="none" stroke="#000000" stroke-width="0.0464" d="M88.284,33.765c-0.368-0.238-0.99-1.171-0.968-1.671"/>
      <path fill="none" stroke="#000000" stroke-width="0.0464" d="M88.835,32.211c-0.14-0.388-0.356-0.632-0.621-0.698"/>
      <path fill="none" stroke="#000000" stroke-width="0.0464" d="M90.01,31.606c-0.311,0.027-0.944-0.04-1.394-0.592"/>
      <path fill="none" stroke="#000000" stroke-width="0.0464" d="M90.149,30.448c-0.289,0.119-1.348,0.211-1.843-0.224"/>
      <path fill="none" stroke="#000000" stroke-width="0.0464" d="M89.62,29.369c-0.173,0.066-1.302,0.079-1.809-0.395"/>
      <path fill="none" stroke="#000000" stroke-width="0.0464" d="M86.971,24.816c-0.806,1.842-2.234,2.052-2.648,1.421&#xD;&#xA;&#x9;&#x9;&#x9;c-1.197,0.315-2.026-0.29-1.865-0.659c-0.783-0.026-1.428-0.604-1.704-1c0.69-0.605,0.276-1.553-0.599-1.5&#xD;&#xA;&#x9;&#x9;&#x9;c-0.875,0.053-1.657-0.685-2.302-1.79"/>
      <path fill="none" stroke="#000000" stroke-width="0.0464" d="M84.323,26.238c0.3-0.08,0.806-0.421,1.013-0.975"/>
      <path fill="none" stroke="#000000" stroke-width="0.0464" d="M82.458,25.579c0.275,0,0.944-0.184,1.289-0.526"/>
      <path fill="none" stroke="#000000" stroke-width="0.0464" d="M85.451,26.5c0.277,0.474,1.428,0.474,2.257-0.316"/>
      <path fill="none" stroke="#000000" stroke-width="0.0464" d="M87.57,21.263c0.184,0.316-0.237,0.534-0.691,0.763&#xD;&#xA;&#x9;&#x9;&#x9;c-0.207,0.106-0.667,0.316-0.852,0.5"/>
      <path fill="none" stroke="#000000" stroke-width="0.0464" d="M88.306,21.185c0.184,0.289-0.24,0.603-0.576,0.815&#xD;&#xA;&#x9;&#x9;&#x9;c-0.207,0.132-0.598,0.237-0.783,0.5"/>
      <path fill="none" stroke="#000000" stroke-width="0.0464" d="M89.06,21.23c0.058,0.381-0.406,0.542-0.766,0.77&#xD;&#xA;&#x9;&#x9;&#x9;c-0.207,0.132-0.645,0.342-0.852,0.605"/>
      <path fill="none" stroke="#000000" stroke-width="0.0464" d="M82.733,27.553c0.83,0.052,1.89,0.42,2.258,1.211&#xD;&#xA;&#x9;&#x9;&#x9;c0.369,0.789,0.599,0.999,1.06,1.105"/>
      <path fill="none" stroke="#000000" stroke-width="0.0464" d="M85.36,29.395c-0.186,0.422-0.737,1.685-0.047,2.158"/>
      <path fill="none" stroke="#000000" stroke-width="0.0464" d="M84.991,31.026c-0.461,0.526-0.483,1.395-0.114,1.816"/>
      <path fill="none" stroke="#000000" stroke-width="0.0464" d="M83.563,30.29c0.575,0.08,0.69-0.184,0.875-0.446"/>
      <path fill="none" stroke="#000000" stroke-width="0.0464" d="M83.839,31.5c0.126,0.105,0.311,0.185,0.461,0.21"/>
      <path fill="none" stroke="#000000" stroke-width="0.0464" d="M83.77,32.974c0.104,0.119,0.23,0.184,0.402,0.238"/>
      <path fill="none" stroke="#000000" stroke-width="0.0464" d="M83.839,34.08c0.104,0.118,0.207,0.197,0.299,0.237"/>
      <path fill="none" stroke="#000000" stroke-width="0.0464" d="M77.506,18.29c1.429,0.632,1.612-0.737,5.09-2.158&#xD;&#xA;&#x9;&#x9;&#x9;c1.179-0.482,1.604-1.71,1.613-2.685"/>
      <path fill="none" stroke="#000000" stroke-width="0.0464" d="M93.931,17.573c-0.271,0.182-1.084,0.661-1.365,0.822"/>
      <path fill="none" stroke="#000000" stroke-width="0.0464" d="M94.316,16.803c-0.256,0.124-1.196,0.533-1.474,0.743"/>
      <path fill="none" stroke="#000000" stroke-width="0.0464" d="M94.616,15.948c-0.483,0.21-1.267,0.552-1.635,0.736"/>
      <path fill="none" stroke="#000000" stroke-width="0.0464" d="M95.21,15.001c-0.073,0.035-0.152,0.065-0.231,0.091&#xD;&#xA;&#x9;&#x9;&#x9;c-0.576,0.184-1.733,0.553-2.217,0.764"/>
      <path fill="none" stroke="#000000" stroke-width="0.0464" d="M95.869,13.921c-0.136,0.135-0.321,0.243-0.562,0.316&#xD;&#xA;&#x9;&#x9;&#x9;c-0.601,0.182-2.424,0.704-2.907,0.914"/>
      <path fill="none" stroke="#000000" stroke-width="0.0464" d="M96.135,12.849c-0.178,0.162-0.408,0.295-0.69,0.388&#xD;&#xA;&#x9;&#x9;&#x9;c-0.783,0.257-2.54,0.791-3.16,0.975"/>
      <path fill="none" stroke="#000000" stroke-width="0.0464" d="M96.539,11.683c-0.092,0.099-0.203,0.173-0.334,0.212&#xD;&#xA;&#x9;&#x9;&#x9;c-1.181,0.343-3.287,1.006-4.254,1.348"/>
      <path fill="none" stroke="#000000" stroke-width="0.0464" d="M96.631,10.395c-0.383,0.587-3.214,1.263-4.871,1.895"/>
      <path fill="none" stroke="#000000" stroke-width="0.0464" d="M92.508,11.032c0.012,0.138-0.02,0.327-0.104,0.573&#xD;&#xA;&#x9;&#x9;&#x9;c-0.322,0.948-2.739,1.461-4.121,1.776"/>
      <path fill="none" stroke="#000000" stroke-width="0.0464" d="M88.627,11.974c0.049,0.865-0.346,1.837-1.346,2.145&#xD;&#xA;&#x9;&#x9;&#x9;c-1.198,0.369-2.959,0.803-3.65,1.171"/>
      <path fill="none" stroke="#000000" stroke-width="0.0464" d="M76.482,18.935c0.973,1.604,1.796,2.684,1.503,3.707"/>
      <path fill="none" stroke="#000000" stroke-width="0.0464" d="M91.805,19.551c0.141-0.184,0.154-0.407-0.01-0.55"/>
      <path fill="none" stroke="#000000" stroke-width="0.0464" d="M88.814,21c0.063,0.126,0.143,0.202,0.246,0.23"/>
      <path fill="none" stroke="#000000" stroke-width="0.0464" d="M92.395,22.095c0.214,0.11,0.346,0.227,0.356,0.353&#xD;&#xA;&#x9;&#x9;&#x9;c0.036,0.474-0.186,0.815-0.691,0.737"/>
      <path fill="none" stroke="#000000" stroke-width="0.0464" d="M89.227,27.132c0.197-0.057,0.408-0.1,0.622-0.128"/>
      <path fill="none" stroke="#000000" stroke-width="0.0464" d="M84.737,34.159c-0.457-0.61-0.368-1.263,0-1.684"/>
      <path fill="none" stroke="#000000" stroke-width="0.0464" d="M85.977,34.396c-0.023-0.191-0.023-0.385-0.02-0.579"/>
      <path fill="none" stroke="#000000" stroke-width="0.0464" d="M82.78,29.132c0.229,0,0.438-0.132,0.622-0.29"/>
      <path fill="none" stroke="#000000" stroke-width="0.0464" d="M80.454,27.854c0.585-0.037,1.166-0.04,1.451,0.015&#xD;&#xA;&#x9;&#x9;&#x9;c0.553,0.104,1.129-0.158,0.621-0.737"/>
      <path fill="none" stroke="#000000" stroke-width="0.0464" d="M72.234,28.842c0.074-1.361,1.737-1.407,2.165-2.21&#xD;&#xA;&#x9;&#x9;&#x9;c-0.139,0.395-0.393,0.789-0.37,1.237"/>
      <path fill="none" stroke="#000000" stroke-width="0.0464" d="M72.515,28.086c0.018,0.467,0.524,0.69,0.824,0.479&#xD;&#xA;&#x9;&#x9;&#x9;c0.284-0.201,0.206-0.934-0.209-1"/>
      <path fill="none" stroke="#000000" stroke-width="0.0464" d="M72.81,27.796c0.218,0.073,0.426,0.204,0.494,0.639"/>
      <path fill="none" stroke="#000000" stroke-width="0.0464" d="M78.636,24.685c-0.377,0.08-0.751,0.237-1.037,0.526"/>
      <path fill="none" stroke="#000000" stroke-width="0.0464" d="M78.175,27.106c0.388,0.028,0.721-0.129,1.02-0.345"/>
      <path fill="none" stroke="#000000" stroke-width="0.0464" d="M78.745,25.772c-0.31,0.079-0.62,0.207-0.892,0.386"/>
    </g>
  </g>
</svg>